<?xml version="1.0" encoding="UTF-8"?>
<svg id="Layer_1" data-name="Layer 1" xmlns="http://www.w3.org/2000/svg" viewBox="0 0 513 512">
  <defs>
    <style>
      .cls-1 {
        fill: #9edd35;
      }

      .cls-2 {
        fill: #fecb11;
      }

      .cls-3 {
        fill: #e12591;
      }

      .cls-4 {
        fill: #40cb50;
      }

      .cls-5 {
        fill: #1ebe37;
      }

      .cls-6 {
        fill: #34dbb2;
      }

      .cls-7 {
        fill: #32ddbb;
      }

      .cls-8 {
        fill: #fb0a0d;
      }

      .cls-9 {
        fill: #38c1fc;
      }

      .cls-10 {
        fill: #39c0fd;
      }

      .cls-11 {
        fill: #fea50f;
      }

      .cls-12 {
        fill: #26bcfe;
      }

      .cls-13 {
        fill: #24ddb9;
      }

      .cls-14 {
        fill: #31dcd7;
      }

      .cls-15 {
        fill: #32ded1;
      }

      .cls-16 {
        fill: #2fc547;
      }

      .cls-17 {
        fill: #38dba7;
      }

      .cls-18 {
        fill: #a434c1;
      }

      .cls-19 {
        fill: #fecd10;
      }

      .cls-20 {
        fill: #30ddbe;
      }

      .cls-21 {
        fill: #95de34;
      }
    </style>
  </defs>
  <g>
    <path class="cls-14" d="M284.57,401.9c.07,2.81-4.32,8.11-6.47,10.32-6.86,7.03-10.09,9.59-19.56,12.6-10.94,3.48-22.07,2.41-32.33-2.5-9.6-4.59-19-15.09-21.24-24.92.32-.21.77-.5.79-.82l.08-1.21c.07-1.11.03-2.28-.33-3.2l-1.25-3.16c-.19-.47-.33-1.5-.32-1.95s1.97-.02,2.38-.39l7.21-6.59,2.46,1.66c.52-.64,1.04-1.48,1.5-1.48.36,0,.92.32,1.69.7,2.89,1.42,2.96-4.73,8.24-2.76.4.15,1.56.07,1.78-.27.17-.26.47-1.05.71-1.3l2.79-2.82c.42-.42.46-1.23.3-2.63l6.47-.11c.48,0,1.49.07,1.48-.26l-.02-1.3c-.01-.93.27-2.06,1.01-2.74l1.87,3.06c3.62-3.35,7.85-1.7,5.65-5.12-.03-.21-.15-1.06-.12-.85,1.77.81,2.26.98,4.4,1.68l-1.2,1.82c.99,1.45,3.64,2.69,5.58,2.91l1.11,1.86,3.18-1.12,1.89,5.44c1.59-1.15,3.53-1.72,5.03-.69l1.01,3.09c.99-1.21,1.58-2.19,2.24-2.27s2.18.78,2.36,1.43-.64,1.77-1.16,2.84l2.25.56c.38.1.39,1.25.61,1.61l3.38,5.52c1.17-.99,1.77-1.5,2.29-1.8.47-.28,1.29,1.26,1.76,1.56l1.51.96c.34.22-.19,1.28-.46,1.84-1.71,3.49,2.93,3.68-.23,8.07-.32.57-.33,2.07-.31,2.72Z"/>
    <path class="cls-9" d="M145.92,365.92l-4.62.94c-5.91,1.21-11.91.68-17.85-.57-2.88-.61-5.65-1.92-8.49-3.33-9.9-4.93-17.29-14.38-19.94-25.13-3.76-15.24,1.63-33.71,14.08-43.4,2.22-1.72,8.32-5.59,10.47-3.75.43.37.76,1.48.75,2.14-.05,4.08-.22,7.9.11,11.87.61,7.45,2.48,14.29,4.94,21.31,1.1,3.12,2.75,5.73,4.34,8.54,3.37,5.98,7.35,11.06,12.49,15.56l5.09,4.47c2.09,1.83,4.51,3.17,6.04,5.63-.11,2.23-6.64,5.55-7.4,5.71Z"/>
    <path class="cls-3" d="M126.4,270.18l-6.09,3.14c-.77.4-2,.39-2.99.5-9.36,1.02-16.46-.95-23.05-7.53-3.07-3.06-5.54-6.45-6.71-10.56-1.53-5.38-1.83-10.42.07-15.98,2.46-7.18,8.75-13.46,16.15-15.64,2.88-.85,7.46-1.79,9.97-1.29l6.52,1.3c13.08,5.29,20.02,17.95,16.47,31.91-.67,2.65-2.06,4.95-3.39,7.38-1.84,3.38-3.45,4.95-6.97,6.77Z"/>
    <path class="cls-4" d="M384.82,361.21c.47-4.63-2.31,9-1.68,5.2l-.75,4.51c-.58,3.48-2.02,6.08-3.8,9.02l-2.33,3.85c-1.51,2.5-3.83,4.27-5.81,6.29-1.17,1.19-2.1,2.27-3.74,3.08l-2.42,1.2c-1.03,1.19-2.2,1.71-4.1,1.91l-2.86,2.5c-1.93.35-3.53.79-4.51,2.14-8.19,1.97-16.93,1.41-25.14-1.82-4.33-1.7-18.17-10.92-15.74-16.34,2.67-.05,5.32.13,7.88-.13l5.61-.56c1.76-.18,3.55-.45,5.19-.71l.03.67c.04.94,4.65-.43,5.22-.61l4.44-1.37c2.02-.63,4.25-2.09,6.28-2.98l4.57-2c2.79-1.22,5.07-3.13,6.83-5.61,1.8-.25,3.3-.95,4.49-2.36,1.71-2.01,4.23-3.83,5.53-5.95,1.11-1.83,1.64-3.34,3.57-4.95l-1.24-.26,2.76-4.89,3.66-7.13c.58-1.13,2.41-2.16,3.44-.9,1.49,1.82,2.72,4.05,3.32,6.21,1.11,4.02,2.46,8.1,1.32,12.01Z"/>
    <path class="cls-6" d="M398.98,241.67c3.07-.01,5.81,1.48,8.78,2.66,4.09,1.63,6.7,4.77,9.47,7.79-.13,1.38.56,2.94,1.48,3.99.16.21.46,1.09.23.99-.15-.06-.95-.23-1.07-.33l-3.3-2.67c-1.73,2.43-.92,4.5.05,6.6l1.49,3.23c.65,1.41,1.76,2.96.72,4.4l-2.56,3.54-5.51,7.06-.55,3.43-3.01.98c.37,4.41-2.73,3.79-2.16,4.81l.94,1.67c.2.36-1.24.61-1.41.2-.18-.44-.71-1.69-.69-1.65-.42,1.89-.72,3.44-1.18,4.72-3.33.42-5.33,2.42-5.82,5.47l-4.88,4.74,5.93,4.8c-2.51.34-5.54,1.72-8.02-.73l-.76-3.39-1.24-6.96c-.39-2.18-.73-4.48-1.46-6.71l-1.93-5.85c-.59-1.8-1.81-5.02-2.59-6.6.17-.03,1.17-.07,1.08-.34l-.45-1.4c.96-1.31,1.63-3.51,1.84-5.27l.51-4.28c.22-1.88,3.09-3.62,3.95-5.15l1.87-3.31c1.1-1.95,2.04-3.61,4.13-4.53.37-.16,1.32-.91,1.14-1.28l-.66-1.34c-.31-.62-.65-2.28-.42-3,.22-.67,1.45-1.08,2.21-1.65l3.03-2.3-2.1-1.24c.93-.59,2.04-1.14,2.89-1.14Z"/>
    <path class="cls-15" d="M284.57,401.9c-.02-.65,0-2.15.31-2.72,3.16-4.39-1.48-4.58.23-8.07.28-.56.81-1.62.46-1.84l-1.51-.96c-.46-.29-1.28-1.83-1.76-1.56-.52.3-1.12.81-2.29,1.8l-3.38-5.52c-.22-.35-.22-1.51-.61-1.61l-2.25-.56c.52-1.07,1.33-2.2,1.16-2.84s-1.69-1.5-2.36-1.43-1.25,1.05-2.24,2.27l-1.01-3.09c-1.5-1.03-3.44-.46-5.03.69l-1.89-5.44-3.18,1.12-1.11-1.86c-1.94-.21-4.59-1.45-5.58-2.91l1.2-1.82c-2.15-.7-2.63-.88-4.4-1.68-.03-.21.09.63.12.85,2.19,3.43-2.03,1.77-5.65,5.12l-1.87-3.06c-.74.68-1.02,1.81-1.01,2.74l.02,1.3c0,.33-1.01.26-1.48.26l-6.47.11c.16,1.4.12,2.2-.3,2.63l-2.79,2.82c-.24.24-.54,1.04-.71,1.3-.22.34-1.38.42-1.78.27-5.29-1.96-5.35,4.18-8.24,2.76-.77-.38-1.33-.7-1.69-.7-.46,0-.98.85-1.5,1.48l-2.46-1.66-7.21,6.59c-.41.38-2.37-.06-2.38.39s.13,1.48.32,1.95l1.25,3.16c.36.91.41,2.08.33,3.2l-.08,1.21c-.02.32-.47.61-.79.82-.54-.97-.81-2.26-1-3.47l-.08-.55c-.32-.63-.53-1.39-.46-2.02l.6-.33c.17-.09-.1-.7-.29-.71l-.73-.05c-.13-1.13-.35-3.43-.36-4.59l-.04-3.57c-.02-1.57.37-3.28.58-5s.67-3.61,2.22-4.89c.94-.78,3.48-.57,4.76-.85l5.6-1.24c1.77-.39,3.63-1.07,5.42-1.62,2.67-.82,5.27-2.21,7.86-3.31,3.44-1.46,4.43-1.56,7.67-4.26,4.97-4.13,3.38-1.84,8.34-5.91,2.83-2.31,5.39-4.54,8.01-7.21.55-.56,1.63-1.31,2.25-1.19.53.1,1.63.75,1.99,1.22l5.04,6.59c3.77,4.93,8.32,9.29,13.17,13.13,7.49,5.93,15.36,5.32,14.47,14.73-.5,5.38-1.72,16.07-5.41,19.6Z"/>
    <path class="cls-7" d="M395.96,308.12l-5.93-4.8,4.88-4.74c.49-3.05,2.48-5.05,5.82-5.47.45-1.28.76-2.83,1.18-4.72-.02-.04.51,1.22.69,1.65.17.4,1.61.16,1.41-.2l-.94-1.67c-.58-1.03,2.53-.41,2.16-4.81l3.01-.98.55-3.43,5.51-7.06,2.56-3.54c1.04-1.44-.07-2.99-.72-4.4l-1.49-3.23c-.97-2.1-1.78-4.17-.05-6.6l3.3,2.67c.13.1.92.27,1.07.33.23.09-.07-.78-.23-.99-.92-1.05-1.62-2.61-1.48-3.99,1.84,2.01,3.15,3.99,4.54,6.65,4.75,9.11,5.16,19.51,1.32,29.28-3.26,8.3-10.55,15.11-18.89,18.34-2.91,1.13-5.5,1.36-8.24,1.73Z"/>
    <path class="cls-17" d="M398.98,241.67c-.85,0-1.97.55-2.89,1.14l2.1,1.24-3.03,2.3c-.76.57-1.99.98-2.21,1.65-.23.71.11,2.37.42,3l.66,1.34c.18.36-.76,1.11-1.14,1.28-2.09.91-3.03,2.57-4.13,4.53l-1.87,3.31c-.86,1.53-3.73,3.27-3.95,5.15l-.51,4.28c-.21,1.76-.88,3.96-1.84,5.27l.45,1.4c.09.27-.91.31-1.08.34l-.72-1.46c.06-.13.79-.8.54-.86l-.81-.2c-.17-.04-.21.14-.29.37-.82-1.42-1.89-4.62-2.93-5.89l-4.37-5.36-7.43-7.78c-2.29-2.4,5.65-8.17,7.57-9.41,3.39-2.2,6.65-4.04,10.57-5.06,2.44-.63,4.72-1.33,7.23-1.37l4.13-.07c2.01-.03,3.89.16,5.53.88Z"/>
    <path class="cls-16" d="M384.82,361.21c1.23,5.22-2.27,16.03-5.68,21.02l-2.49,3.63c-2.69,3.92-6.4,7.25-10.55,9.48-3.11,1.67-6.08,3.82-9.12,4.55l-4.15,1c.97-1.35,2.57-1.79,4.51-2.14l2.86-2.5c1.9-.2,3.07-.72,4.1-1.91l2.42-1.2c1.64-.81,2.57-1.89,3.74-3.08,1.98-2.01,4.3-3.79,5.81-6.29l2.33-3.85c1.78-2.94,3.22-5.54,3.8-9.02l.75-4.51c-.63,3.8,2.15-9.83,1.68-5.2Z"/>
    <path class="cls-16" d="M330.61,381.33c7.27-1.18,13.8-4.34,20.23-7.82,2.38-1.29,4.93-2.72,6.95-4.55,3.76-3.41,7.35-6.77,10.56-10.65l1.98-2.4,1.24.26c-1.93,1.6-2.46,3.12-3.57,4.95-1.3,2.13-3.82,3.94-5.53,5.95-1.19,1.4-2.69,2.1-4.49,2.36-1.75,2.48-4.04,4.39-6.83,5.61l-4.57,2c-2.03.89-4.26,2.35-6.28,2.98l-4.44,1.37c-.57.18-5.19,1.55-5.22.61l-.03-.67Z"/>
    <path class="cls-6" d="M379.23,276.43c-.16-.18-.44-.5-.56-.69.09-.23.13-.42.29-.37l.81.2c.25.06-.48.73-.54.86Z"/>
    <path class="cls-14" d="M203.43,391.36c-.14-.26-.39-.8-.43-1.1l.73.05c.19.01.46.62.29.71l-.6.33Z"/>
    <g>
      <ellipse class="cls-11" cx="270.71" cy="240.99" rx="69.28" ry="69.01"/>
      <path class="cls-19" d="M187.51,356.92c-6.06-1.2-7.02-1.58-12.77-3.55-3-1.03-5.68-2.8-8.48-4.16-1.44-.69-3.03-1.67-4.32-2.68l-4-3.15c-4.7-3.7-12.2-11.9-14.82-17.1-1.35-2.69-2.75-5.23-3.76-7.94-1.41-3.76-2.7-8.82-3.22-12.63l-.59-4.35c-.21-1.53-.14-3.59-.08-5.2l.15-4.31c.05-1.31.28-3.24.57-4.54l1.54-6.98c.34-1.56.86-3.62,1.48-4.98l3.48-7.6c3.66-8,11.55-15.61,18.29-21.62,3.44-3.06,25.75-16.72,25.27-7.44-.77,14.87,2.45,29.28,9.13,42.51,1.73,3.44,4.01,6.44,6.34,9.58l3.47,4.67c2.19,2.95,5.29,6.04,8.28,8.28l5.22,3.92c3.27,2.45,6.62,4.96,10.16,6.72,2.81,1.4,5.45,2.97,8.31,4.08l7.2,2.79c1.87.73,4.3.85,5.7,2.64-.47,3.21-1.98,6.06-3.94,8.52l-3.79,4.74c-1.85,2.31-3.7,4.35-6.07,6.19-3.35,2.6-6.55,5.36-10.42,7.15l-7.94,3.69c-1.24.58-3.17,1.08-4.54,1.39l-7.02,1.58c-1.13.26-3.15.49-4.41.51l-4.89.11c-1.47.03-8.49-.62-9.54-.83Z"/>
      <path class="cls-1" d="M358.97,271.39c.26.89.65,1.8,1.09,2.82l1.56,3.61c-.69.47-1.86,1.31-2.02,1.94-.13.54.58,1.47,1.06,1.95l7.87,7.9c-2.89,2.2-1.75,4.03-.97,6.21.57,1.6,1.03,2.71,2.51,3.89.46,1.15,1.19,3.52,1.47,4.66l-2.64,3.53c1.76,1.62,2.65,2.64,2.78,4.65.08,1.25-1.62,2.62-3,3.82l1.25,2.18c.66,1.16.55,4.23.1,5.59l-5.75,5.84.95,4.73-2.36,6.72c-2.07,1.36-4.18,2.95-6,4.87l-7.42,7.81c-.88.93-2.47,2.09-3.55,2.9l-4.25-1.96c-.75-.35-2.19,1.72-3.01,2.02-15.05,5.61-3.84,8.71-13.62,7.3l-3.88-.65-.15,2.15c-4.5,1.38-3.31-2.41-6.75-2.31-.67.02-1.39,1.53-2,1.87-2.76,1.52-6-1.02-7.32-3.53-1.4.81-2.62,1.5-3.58,1.11-1.25-.5-2.05-1.12-3.18-2.11l-2.51.85-6.2-5.97c-1.51-1.46-2.93-2.82-5.44-1.61-4.49-4.08-4.23-1.46-7.75-5.51-.47-.54-1.27-.99-1.83-1.09l-1.43-1.71-.27-2.33c-.15-1.32-1.5-2.51-2.77-2.62-2.37-4.36-3.91-9.14-3.33-14.48.09-.82,2.04-1.24,2.87-1.26l5.89-.13c1.45-.03,3.32-.04,4.7-.24l7.44-1.08c3.33-.48,8.27-1.64,11.28-2.75l6.84-2.52c2.38-.88,4.53-2.23,6.87-3.3,2.77-1.27,5.58-3.37,8.03-5.4l4.78-3.96c3.32-2.75,6.54-5.93,9.28-9.27l3.48-4.24c1.84-2.24,3.62-4.88,4.95-7.37l1.31-2.44c1.22-2.28,2.34-4.59,3.26-6.93l3.5-8.87c2.63-1.09,4.5.91,5.93,2.53l1.95,2.21Z"/>
      <path class="cls-21" d="M366.08,336.88l-.99.21c-.14.03.68.4.56.34-.78,2.09-1.88,4-3.12,6.31-.8,1.5-2.71,2.95-3.8,4.46-5.51,7.61-18.07,14.33-27.11,17-7.63,2.26-15.21,2.95-23.2,1.91-2.9-.38-9.31-1.82-12.01-2.88-10.63-4.18-12.45-6-20.33-13.89-.81-.81-1.38-1.88-1.67-2.79.56.1,1.36.55,1.83,1.09,3.52,4.05,3.26,1.43,7.75,5.51,2.51-1.21,3.92.15,5.44,1.61l6.2,5.97,2.51-.85c1.13.98,1.93,1.6,3.18,2.11.97.39,2.18-.3,3.58-1.11,1.32,2.52,4.56,5.05,7.32,3.53.61-.33,1.33-1.85,2-1.87,3.43-.1,2.25,3.69,6.75,2.31l.15-2.15,3.88.65c9.78,1.4-1.43-1.7,13.62-7.3.83-.31,2.26-2.37,3.01-2.02l4.25,1.96c1.08-.81,2.67-1.97,3.55-2.9l7.42-7.81c1.82-1.92,3.93-3.51,6-4.87l2.36-6.72-.95-4.73,5.75-5.84c.44-1.36.56-4.43-.1-5.59l-1.25-2.18c1.39-1.2,3.09-2.57,3-3.82-.13-2.01-1.02-3.03-2.78-4.65l2.64-3.53c-.28-1.13-1-3.5-1.47-4.66-1.47-1.18-1.94-2.29-2.51-3.89-.77-2.18-1.92-4.01.97-6.21l-7.87-7.9c-.48-.48-1.19-1.41-1.06-1.95.16-.63,1.33-1.47,2.02-1.94l-1.56-3.61c-.44-1.02-.83-1.93-1.09-2.82,1.99,2.25,5.38,6.08,6.73,9.08,1.09,2.43,2.28,4.71,3.06,7.12l1.84,5.73c.74,2.3,1.51,7.1,1.77,9.77,1.25,13.19.83,2.87-.15,14.9-.41,5.09-1.78,9.64-3.61,14.3-.66,1.68-1.18,3.56-2.53,4.59Z"/>
      <path class="cls-21" d="M272.99,345.86c-1.47-1.2-2.74-3.08-3.04-4.95,1.27.11,2.62,1.3,2.77,2.62l.27,2.33Z"/>
      <g>
        <path class="cls-20" d="M232.38,165.37l-.72.43-.4-.97.88.1c.16.02.16.18.24.44Z"/>
        <path class="cls-20" d="M244.55,158.26c-.4.26-1.36.97-1.83,1.18l-5.99,2.59c-2.02.87-4.2,1.37-5.47,2.81-1.23.36-2.74.93-3.94,1.63l-3.26,1.9c-3.77,2.2-6.45,4.7-9.61,7.53l-8.19,7.34c-1.26,1.13-3.66,1.6-5.39,6.31-.72,1.97-2.8,3.76-3.78,5.55-2.09,3.85-6.9,9.65-10.2,12.47.27.89.94,3,.36,3.52l-2.72,2.5c-2.46.56-5.32.84-6.81,3.24-2.89,4.64-9.35,3.33-7.7,6.13-1.4.44-11.55,5.86-13.36,7.21-3.83,2.84-4.46,4.19-6.71,4.68.22-1.21-1.44-1.8-2.27-2.73-1.16-1.29-2.16-2.52-3.41-3.22-.11-.65-1.45-1.6-1.78-2.27l-2.16-4.4c-.99-2.02-2.37-4.25-3.12-6.35l-3.51-9.89c-1.33-3.76-1.36-11.61-1.13-15.94.11-2.02.57-4.24.87-6.33l.6-4.22c.05-.36.39-1.33.48-1.64.07-.23-.62-.28-.81-.35.83-3.94,2.33-7.59,4.13-11.33s4.41-6.75,6.56-10.28l1.72-2.81c2.83-4.63,9.14-8.32,11.47-10.26,4.47-3.73,9.51-6.19,15-8.31,2.83-1.09,6.09-2.34,9.02-2.68l10.91-1.29c1.25-.15,3.5-.1,4.75.07l6.93.95c2.62.36,9.03,1.86,11.22,2.84l7.71,3.44c1.82.81,8.12,5.39,9.49,6.6,1.99,1.74,13.04,11.71,11.91,13.82Z"/>
        <path class="cls-20" d="M144.28,228.9c.05.16.13.64,0,.74l-.42.33-.6-.55.27-.52c.08-.16.7-.18.76-.01Z"/>
        <path class="cls-2" d="M356.35,238.44c-.47-10.17-2.67-19.15-6.27-28.74-1.14-3.05-2.76-5.97-4.29-9.06-4.29-8.7-14.35-18.76-21.8-25.04-5.49-4.62-12.99-8.56-19.56-10.97-3.75-1.38-8.91-3.11-12.79-3.57l-6.11-.72c-1.43-.17-3.43-1.14-2.72-2.74l2.07-4.67c5.18-5.64,3-4.88,9.28-9.79,1.41-1.1,2.7-2.18,4.16-3.01,3.4-1.94,6.71-4.43,10.45-5.86,2.46-.93,4.8-1.92,7.27-2.42,1.93-.39,3.79-.94,5.68-1.23,26.53-4.02,51.86,8.4,64.35,31.94,5.08,9.58,7.09,19.39,7.1,30.03,0,6.63-.98,10.38-2.69,16.62-1.08,3.95-5.21,12.14-7.64,15.2l-3.8,4.8c-1.26,1.59-2.53,2.77-4.08,4.08-3.33,2.82-6.4,5.88-10.4,7.51l-5.94,2.41c-2.02-.68-2.2-2.92-2.29-4.76Z"/>
        <path class="cls-13" d="M232.38,165.37c-.08-.26-.08-.42-.24-.44l-.88-.1c1.28-1.43,3.46-1.93,5.47-2.81l5.99-2.59c.47-.2,1.43-.92,1.83-1.18.19.35.46.88.35,1.22s-.9.97-1.26,1.11l-4.76,1.87-6.49,2.91Z"/>
        <path class="cls-13" d="M231.26,164.83l.4.97c-.91.23-1.8.61-2.62,1.18l-7.88,5.48c-4.74,3.29-15.19,12.19-17.67,16.14l-2.31,3.68c-3.12,4.96-8.5,11.35-10.83,19.5l-.71-.58c-.14-.11-.48.71-.32.8l.53.29c-.39,1.53-.97,3.27-1.69,4.91l-18.12,5.77c-1.65-2.8,4.81-1.49,7.7-6.13,1.49-2.4,4.36-2.68,6.81-3.24l2.72-2.5c.57-.53-.09-2.63-.36-3.52,3.3-2.83,8.1-8.62,10.2-12.47.97-1.79,3.05-3.58,3.78-5.55,1.72-4.71,4.13-5.17,5.39-6.31l8.19-7.34c3.15-2.83,5.83-5.33,9.61-7.53l3.26-1.9c1.2-.7,2.71-1.27,3.94-1.63Z"/>
        <path class="cls-13" d="M149.97,234.85c-3.31.72-4.62-2.2-6.11-4.87l.42-.33c.13-.11.05-.58,0-.74,1.26.7,2.26,1.93,3.41,3.22.83.93,2.49,1.52,2.27,2.73Z"/>
        <path class="cls-13" d="M144.28,228.9c-.06-.17-.68-.15-.76.01l-.27.52c-.8-.5-1.13-1.72-1.66-2.51-3.92-5.9-6.47-10.42-8.22-17.3l-1.27-5c-.38-1.48-.48-3.13-.6-4.6l-.37-4.42c-.1-1.2-.03-3.29.08-4.61l.41-4.82.4-4.11c.12-1.24,1.36-3.26,1.69-4.56.19.07.87.12.81.35-.09.31-.43,1.28-.48,1.64l-.6,4.22c-.3,2.09-.76,4.32-.87,6.33-.23,4.33-.21,12.18,1.13,15.94l3.51,9.89c.74,2.09,2.12,4.32,3.12,6.35l2.16,4.4c.33.67,1.67,1.61,1.78,2.27Z"/>
        <path class="cls-20" d="M190.35,211.78l-.51.5-.53-.29c-.16-.09.18-.91.32-.8l.71.58Z"/>
      </g>
      <path class="cls-1" d="M366.08,336.88l-.43.55c.12.05-.7-.31-.56-.34l.99-.21Z"/>
    </g>
    <path class="cls-14" d="M203.97,393.93l-.08-.55.08.55Z"/>
    <ellipse class="cls-10" cx="264.64" cy="114.71" rx="29.68" ry="29.57"/>
  </g>
  <path class="cls-5" d="M513,428.71c-.03-14.14-.63-41.42-.44-51.23.27-5.33-2.8-13.19-8.41-14.37-7.72-1.04-17.15-1.58-25.01-.58-12.69,1.15-12.73,15.81-12.35,25.5,0,8.06.01,24.94.02,35.5-.37,3.7.89,7.92-.75,10.19-16.69-13.29-49.9-51.39-58.31-57.61-3.3,1.12-4.91,5.96-7.4,8.33-5.43,6.44-11.63,12.83-18.58,17.57-1.36,1.27-5.12,3.07-3.91,4.98,6.34,6.5,49.97,50.05,57.12,57.48-.22,2.51-11.1,1.3-13.42,1.49-11.85-.08-34.04.03-43.24.03-3.67.12-6.88.68-10.19,3.01-6.54,5.08-4.64,14.57-5,21.9-2.08,26.99,20.99,20.03,38.89,20.79,23.62-.03,47.44,0,68.46,0,17.31-1.49,40.67,6.41,42.25-13.93-.02-16.14-.55-49.54.26-68.93v-.12Z"/>
  <path class="cls-12" d="M429.71,0c-14.14.03-41.42.63-51.23.44-5.33-.27-13.19,2.8-14.37,8.41-1.04,7.72-1.58,17.15-.58,25.01,1.15,12.69,15.81,12.73,25.5,12.35,8.06,0,24.94-.01,35.5-.02,3.7.37,7.92-.89,10.19.75-13.29,16.69-51.39,49.9-57.61,58.31,1.12,3.3,5.96,4.91,8.33,7.4,6.44,5.43,12.83,11.63,17.57,18.58,1.27,1.36,3.07,5.12,4.98,3.91,6.5-6.34,50.05-49.97,57.48-57.12,2.51.22,1.3,11.1,1.49,13.42-.08,11.85.03,34.04.03,43.24.12,3.67.68,6.88,3.01,10.19,5.08,6.54,14.57,4.64,21.9,5,26.99,2.08,20.03-20.99,20.79-38.89-.03-23.62,0-47.44,0-68.46-1.49-17.31,6.41-40.67-13.93-42.25-16.14.02-49.54.55-68.93-.26h-.12Z"/>
  <path class="cls-8" d="M0,428.71c.03-14.14.63-41.42.44-51.23-.27-5.33,2.8-13.19,8.41-14.37,7.72-1.04,17.15-1.58,25.01-.58,12.69,1.15,12.73,15.81,12.35,25.5,0,8.06-.01,24.94-.02,35.5.37,3.7-.89,7.92.75,10.19,16.69-13.29,49.9-51.39,58.31-57.61,3.3,1.12,4.91,5.96,7.4,8.33,5.43,6.44,11.63,12.83,18.58,17.57,1.36,1.27,5.12,3.07,3.91,4.98-6.34,6.5-49.97,50.05-57.12,57.48.22,2.51,11.1,1.3,13.42,1.49,11.85-.08,34.04.03,43.24.03,3.67.12,6.88.68,10.19,3.01,6.54,5.08,4.64,14.57,5,21.9,2.08,26.99-20.99,20.03-38.89,20.79-23.62-.03-47.44,0-68.46,0-17.31-1.49-40.67,6.41-42.25-13.93.02-16.14.55-49.54-.26-68.93v-.12Z"/>
  <path class="cls-18" d="M0,83.29c.03,14.14.63,41.42.44,51.23-.27,5.33,2.8,13.19,8.41,14.37,7.72,1.04,17.15,1.58,25.01.58,12.69-1.15,12.73-15.81,12.35-25.5,0-8.06-.01-24.94-.02-35.5.37-3.7-.89-7.92.75-10.19,16.69,13.29,49.9,51.39,58.31,57.61,3.3-1.12,4.91-5.96,7.4-8.33,5.43-6.44,11.63-12.83,18.58-17.57,1.36-1.27,5.12-3.07,3.91-4.98-6.34-6.5-49.97-50.05-57.12-57.48.22-2.51,11.1-1.3,13.42-1.49,11.85.08,34.04-.03,43.24-.03,3.67-.12,6.88-.68,10.19-3.01,6.54-5.08,4.64-14.57,5-21.9C151.95-5.88,128.88,1.08,110.98.31c-23.62.03-47.44,0-68.46,0C25.21,1.8,1.85-6.1.27,14.25.28,30.39.82,63.79,0,83.17v.12Z"/>
</svg>